<!DOCTYPE svg PUBLIC "-//W3C//DTD SVG 1.1//EN" "http://www.w3.org/Graphics/SVG/1.1/DTD/svg11.dtd">
<!-- Uploaded to: SVG Repo, www.svgrepo.com, Transformed by: SVG Repo Mixer Tools -->
<svg height="800px" width="800px" version="1.1" id="Layer_1" xmlns="http://www.w3.org/2000/svg" xmlns:xlink="http://www.w3.org/1999/xlink" viewBox="0 0 512 512" xml:space="preserve" fill="#000000">
<g id="SVGRepo_bgCarrier" stroke-width="0"/>
<g id="SVGRepo_tracerCarrier" stroke-linecap="round" stroke-linejoin="round"/>
<g id="SVGRepo_iconCarrier"> <g> <path style="fill:#ED1C24;" d="M256,82.752c-95.536,0-173.248,77.712-173.248,173.248S160.464,429.248,256,429.248 S429.248,351.536,429.248,256S351.52,82.752,256,82.752z M243.776,367.296c-12.608,0-22.816-10.208-22.816-22.816 s10.208-22.816,22.816-22.816s22.816,10.208,22.816,22.816S256.368,367.296,243.776,367.296z M325.904,367.296 c-12.608,0-22.816-10.208-22.816-22.816s10.208-22.816,22.816-22.816s22.816,10.208,22.816,22.816S338.512,367.296,325.904,367.296 z M346.032,311.328H222.288l-23.056-85.984h24.128l-18.496-57.664h-46.24v-16h57.952l23.616,73.664h142.24L346.032,311.328z"/> <path style="fill:#ED1C24;" d="M256,0C114.608,0,0,114.608,0,256s114.608,256,256,256s256-114.608,256-256S397.392,0,256,0z M256,453.248c-108.928,0-197.248-88.32-197.248-197.248S147.072,58.752,256,58.752c108.944,0,197.248,88.304,197.248,197.248 S364.944,453.248,256,453.248z"/> </g> <g> <path style="fill:#FFFFFF;" d="M256,58.752c-108.928,0-197.248,88.32-197.248,197.248S147.072,453.248,256,453.248 c108.944,0,197.248-88.304,197.248-197.248S364.944,58.752,256,58.752z M256,429.248c-95.536,0-173.248-77.712-173.248-173.248 S160.464,82.752,256,82.752S429.248,160.464,429.248,256S351.52,429.248,256,429.248z"/> <polygon style="fill:#FFFFFF;" points="216.576,151.664 158.624,151.664 158.624,167.664 204.88,167.664 223.376,225.328 199.248,225.328 222.288,311.328 346.032,311.328 382.432,225.328 240.192,225.328 "/> <circle style="fill:#FFFFFF;" cx="243.776" cy="344.48" r="22.816"/> <circle style="fill:#FFFFFF;" cx="325.904" cy="344.48" r="22.816"/> </g> </g>
</svg>